<?xml version="1.0" encoding="UTF-8"?>
<svg width="2560px" height="350px" viewBox="0 0 2560 350" version="1.1" xmlns="http://www.w3.org/2000/svg" xmlns:xlink="http://www.w3.org/1999/xlink">
    <!-- Generator: Sketch 43.1 (39012) - http://www.bohemiancoding.com/sketch -->
    <title>alleyway-banner-bg</title>
    <desc>Created with Sketch.</desc>
    <defs></defs>
    <g id="elements" stroke="none" stroke-width="1" fill="none" fill-rule="evenodd">
        <g id="alleyway-banner-bg">
            <rect id="Rectangle-3" fill="#BA8A3D" x="941" y="-21" width="1619" height="371"></rect>
            <polygon id="Rectangle-4" fill="#C8A255" points="-337 -21 1173.82245 -21 1372.71875 350 -138.103703 350"></polygon>
            <circle id="Oval" fill="#BA8A3D" cx="1280" cy="175" r="44"></circle>
            <g id="Alleyway_Stacked_RGB_Black" transform="translate(1236.000000, 131.000000)">
                <g id="Group">
                    <path d="M44.5,0.0704465335 C20.1356851,0.0704465335 0.383060986,19.7330952 0.383060986,43.9864277 C0.383060986,68.2397603 20.1356851,87.9024089 44.5,87.9024089 C68.8643149,87.9024089 88.616939,68.2397603 88.616939,43.9864277 C88.616939,19.7330952 68.8643149,0.0704465335 44.5,0.0704465335 Z M67.0996373,67.54296 C66.8682685,67.6327438 66.0800458,67.9294207 65.6800522,67.9294207 C64.6761468,67.9294207 63.7663575,67.3926698 63.3055805,66.5280129 L48.958752,38.7087027 L40.6726104,54.7839036 L45.2529291,54.7839036 L44.8215635,53.8197039 C44.6470565,53.4195805 44.690193,52.9706616 44.9352871,52.6193337 C45.2646936,52.1450411 45.9313496,51.9459553 46.4783996,52.1665112 L53.8331835,55.129376 C54.3841551,55.3518837 54.7410121,55.87302 54.7410121,56.4546627 C54.7449336,57.0460646 54.3959196,57.55549 53.8351443,57.7838531 L46.4666351,60.7506216 C45.9411533,60.9711774 45.2607721,60.7779471 44.9313656,60.2977991 C44.6862715,59.9464712 44.643135,59.5014559 44.817642,59.107188 L45.2529291,58.1293255 L38.9471479,58.1293255 L34.6138842,66.5221575 C34.1511465,67.3926698 33.2433179,67.9313725 32.2374517,67.9313725 C31.8354974,67.9313725 31.0492355,67.6366475 30.8159059,67.5449119 L30.3237569,67.3497297 L31.3394269,65.4291375 L35.1040724,58.1254219 L19.7494168,58.1254219 C19.1513872,58.1254219 18.5866904,57.8170341 18.2788522,57.3193196 C17.9612102,56.8137979 17.947485,56.1736005 18.2415979,55.6485605 L36.1687612,21.0017791 L36.8236526,21.2808895 C37.931478,21.7551821 38.5510759,22.9087086 38.3334323,24.0856569 C38.3451968,24.2535135 38.1902973,24.663396 38.1726506,24.7004806 L22.604273,54.7819518 L36.8295349,54.7819518 L47.4372078,34.1648625 C47.7548497,33.6164007 48.3313111,33.2884947 48.9528697,33.2884947 C49.5940359,33.2884947 50.1606935,33.6066416 50.4685317,34.1394888 L67.5917863,67.3516816 L67.0996373,67.54296 Z M70.4799752,55.9862256 C70.2486064,56.0779612 69.4603837,56.3726863 69.0603901,56.3726863 C68.0545239,56.3726863 67.1466954,55.8359354 66.6878792,54.9693267 L48.958752,20.6484994 L34.3766331,48.9479577 C33.9138954,49.8204219 33.0060668,50.3571727 32.0002006,50.3571727 C31.5982463,50.3571727 30.8119844,50.0624477 30.5806156,49.9707121 L30.0845451,49.7774818 L31.1002151,47.8568895 L47.435247,16.1046592 C47.752889,15.5561974 48.3293503,15.2282914 48.950909,15.2282914 C49.5920751,15.2282914 50.1587327,15.5464383 50.4665709,16.0792855 L70.9701634,55.7949471 L70.4799752,55.9862256 Z" id="Shape" fill="#E4E4E4" fill-rule="nonzero"></path>
                    <g transform="translate(17.646776, 15.019976)"></g>
                </g>
            </g>
        </g>
    </g>
</svg>