<?xml version="1.0" encoding="utf-8"?>
<!-- Generator: Adobe Illustrator 19.1.0, SVG Export Plug-In . SVG Version: 6.00 Build 0)  -->
<svg version="1.1" id="Layer_1" xmlns="http://www.w3.org/2000/svg" xmlns:xlink="http://www.w3.org/1999/xlink" x="0px" y="0px"
	 viewBox="-26 -72 522 720" style="enable-background:new -26 -72 522 720;" xml:space="preserve">
<style type="text/css">
	.st0{fill:#C7922F;}
	.st1{fill:#FFFFFF;}
</style>
<g>
	<g>
		<g>
			<circle class="st0" cx="235" cy="193.9" r="258.3"/>
		</g>
	</g>
	<g>
		<path class="st1" d="M269.9,136c-1.8-3.1-5.1-5-8.9-5c-3.6,0-7,1.9-8.9,5.2L190,257.5h-83.3l91.2-176.9c0.1-0.2,1-2.6,0.9-3.6
			c1.3-6.9-2.4-13.7-8.8-16.5l-3.8-1.6l-105,203.8c-1.7,3.1-1.6,6.9,0.2,9.8c1.8,2.9,5.1,4.7,8.6,4.7h90l-22,43l-5.9,11.3l2.9,1.1
			c1.4,0.5,6,2.3,8.3,2.3c5.9,0,11.2-3.2,13.9-8.3l25.4-49.4h36.9l-2.6,5.8c-1,2.3-0.8,4.9,0.7,7c1.9,2.8,5.9,4,9,2.7l43.1-17.5
			c3.3-1.3,5.3-4.3,5.3-7.8c0-3.4-2.1-6.5-5.3-7.8L246.6,242c-3.2-1.3-7.1-0.1-9,2.7c-1.4,2.1-1.7,4.7-0.7,7.1l2.5,5.7h-26.8
			l48.5-94.6l84,163.6c2.7,5.1,8,8.2,13.9,8.2c2.4,0,7-1.7,8.3-2.3l2.9-1.1L269.9,136z"/>
		<path class="st1" d="M150.6,228l2.9,1.1c1.4,0.5,6,2.3,8.3,2.3c5.9,0,11.2-3.2,13.9-8.3l85.4-166.5l103.8,201.9
			c2.7,5.1,8,8.3,13.9,8.3c2.4,0,7-1.7,8.3-2.3l2.9-1.1L269.9,29.8c-1.8-3.1-5.1-5-8.9-5c-3.6,0-7,1.9-8.9,5.2l-95.7,186.8
			L150.6,228z"/>
	</g>
</g>
<g>
	<g>
		<path class="st1" d="M3.7,501.6c-2.2,0-4.3,1.4-5.1,3.5l-22.2,57.8h3.7c2.6,0,4.8-1.6,5.7-4l4.7-13.2h26l5,13.3
			c0.9,2.3,3.1,3.9,5.7,3.9H31L8.7,505.1C7.9,503,5.9,501.6,3.7,501.6z M-7.1,539.3l9.5-26.1c0.4-1,0.7-2.4,1-4.1h0.2
			c0.3,1.9,0.6,3.2,0.9,4.1l9.6,26.1H-7.1z"/>
		<path class="st1" d="M260.9,503.5l-13.4,25.8c-0.8,1.5-1.3,2.8-1.6,3.8h-0.1c-0.8-2.2-1.3-3.4-1.5-3.8l-12.7-25.7
			c-0.6-1.2-1.9-2-3.2-2h-5.9l19.3,38c0.3,0.5,0.4,1.1,0.4,1.6v18c0,2,1.6,3.6,3.6,3.6c2,0,3.6-1.6,3.6-3.6v-18.2
			c0-0.6,0.1-1.2,0.4-1.7l19.8-37.9h-5.4C262.8,501.6,261.5,502.4,260.9,503.5z"/>
		<path class="st1" d="M357.8,505l-11.6,43.8c-0.7,2.5-1,4.4-1.2,5.9h-0.2c-0.2-2.2-0.6-4.1-1-5.7l-12.1-44c-0.5-2-2.3-3.3-4.4-3.3
			c-2,0-3.8,1.3-4.4,3.3l-12.6,43.7c-0.7,2.6-1.2,4.6-1.3,6.2h-0.2c-0.1-2.1-0.5-4.2-1-6.2l-12.1-43.7c-0.5-2-2.3-3.3-4.4-3.3h-4.5
			l17,58c0.6,1.9,2.3,3.3,4.4,3.3h1.5c2,0,3.8-1.3,4.4-3.3l11.8-41.6c0.6-2,0.9-4,1.1-6.2h0.2c0.1,2.3,0.4,4.3,1,6.2l11.7,41.5
			c0.6,2,2.3,3.3,4.4,3.3h1.5c2,0,3.8-1.4,4.4-3.3l16.4-58h-4.3C360.1,501.6,358.3,503,357.8,505z"/>
		<path class="st1" d="M408.3,501.6c-2.2,0-4.3,1.4-5.1,3.5l-22.2,57.8h4c2.4,0,4.5-1.5,5.3-3.7l4.8-13.5h26l5.1,13.6
			c0.8,2.2,2.9,3.6,5.2,3.6h4.1l-22.3-57.8C412.6,503,410.5,501.6,408.3,501.6z M397.6,539.3l9.5-26.1c0.4-1,0.7-2.4,1-4.1h0.2
			c0.3,1.9,0.6,3.2,0.9,4.1l9.6,26.1H397.6z"/>
		<path class="st1" d="M141.3,556.5h-1.8v-0.1h-19.6v-51.2c0-2-1.6-3.6-3.6-3.6c-2,0-3.6,1.6-3.6,3.6v57.7h26.8v0h1.8
			c1.8,0,3.2-1.4,3.2-3.2S143.1,556.5,141.3,556.5z"/>
		<path class="st1" d="M201.5,556.7h-24.6v-22.2h22.1c1.1,0,1.9-0.3,2.4-1c0.5-0.6,0.8-1.4,0.8-2.1c0-0.8-0.3-1.5-0.8-2.1
			c-0.5-0.6-1.3-1-2.4-1h-22.1v-20.4h23.4c1.1,0,1.8-0.3,2.4-1c0.5-0.6,0.8-1.4,0.8-2.2c0-0.8-0.3-1.5-0.8-2.1
			c-0.5-0.6-1.2-0.9-2.1-0.9l0.2,0h-0.4c0,0,0,0,0,0h-27.1c0,0,0,0,0,0h-3.5v3.7v53.9v3.7h3.8h28.1h0.6l-0.3-0.1
			c0.9-0.1,1.6-0.3,2-0.9c0.5-0.6,0.8-1.4,0.8-2.2c0-0.8-0.3-1.5-0.8-2.1C203.4,557,202.6,556.7,201.5,556.7z"/>
		<path class="st1" d="M84.3,556.5h-1.8v-0.1H62.9v-51.2c0-2-1.6-3.6-3.6-3.6c-2,0-3.6,1.6-3.6,3.6v57.7h26.8v0h1.8
			c1.8,0,3.2-1.4,3.2-3.2S86.1,556.5,84.3,556.5z"/>
		<path class="st1" d="M488.1,501.6c-1.3,0-2.6,0.7-3.2,1.9l-13.4,25.8c-0.8,1.5-1.3,2.8-1.6,3.8h-0.1c-0.8-2.2-1.3-3.4-1.5-3.8
			l-12.7-25.7c-0.6-1.2-1.9-2-3.2-2h-5.9l19.3,38c0.3,0.5,0.4,1.1,0.4,1.6v18c0,2,1.6,3.6,3.6,3.6c2,0,3.6-1.6,3.6-3.6v-18.2
			c0-0.6,0.1-1.2,0.4-1.7l19.8-37.9H488.1z"/>
	</g>
	<g>
		<path class="st1" d="M456.5,628.3v-6.1c0.7,0.6,1.5,1.2,2.5,1.7c1,0.5,2,0.9,3.1,1.3c1.1,0.3,2.2,0.6,3.3,0.8
			c1.1,0.2,2.1,0.3,3,0.3c3.2,0,5.6-0.6,7.2-1.8c1.6-1.2,2.4-2.9,2.4-5.1c0-1.2-0.3-2.2-0.8-3.1c-0.5-0.9-1.3-1.7-2.2-2.4
			s-2-1.4-3.3-2.1c-1.3-0.7-2.6-1.4-4.1-2.1c-1.6-0.8-3-1.6-4.3-2.4c-1.3-0.8-2.5-1.7-3.5-2.7s-1.8-2.1-2.3-3.3
			c-0.6-1.2-0.9-2.7-0.9-4.3c0-2,0.4-3.8,1.3-5.3c0.9-1.5,2.1-2.7,3.5-3.7c1.4-1,3.1-1.7,4.9-2.2c1.9-0.5,3.7-0.7,5.7-0.7
			c4.4,0,7.6,0.5,9.6,1.6v5.9c-2.6-1.8-6-2.7-10.1-2.7c-1.1,0-2.3,0.1-3.4,0.4c-1.1,0.2-2.2,0.6-3,1.2c-0.9,0.5-1.6,1.2-2.2,2.1
			c-0.6,0.8-0.8,1.9-0.8,3.1c0,1.1,0.2,2.1,0.6,2.9c0.4,0.8,1,1.6,1.9,2.3c0.8,0.7,1.8,1.3,3,2c1.2,0.6,2.6,1.3,4.1,2.1
			c1.6,0.8,3.1,1.6,4.5,2.5c1.4,0.9,2.7,1.8,3.8,2.9c1.1,1.1,1.9,2.2,2.6,3.5c0.6,1.3,0.9,2.8,0.9,4.4c0,2.2-0.4,4-1.3,5.6
			c-0.9,1.5-2,2.8-3.5,3.7c-1.5,1-3.1,1.6-5,2.1c-1.9,0.4-3.9,0.6-6,0.6c-0.7,0-1.6-0.1-2.6-0.2c-1-0.1-2.1-0.3-3.2-0.5
			c-1.1-0.2-2.1-0.5-3.1-0.8C457.9,629.1,457.1,628.7,456.5,628.3z"/>
		<path class="st1" d="M327.3,584.9c-1.7,0-3.2,1-3.8,2.6l-16.6,43.4h2.8c1.9,0,3.6-1.2,4.3-3l3.5-9.9h19.5l3.8,10
			c0.7,1.8,2.4,2.9,4.2,2.9h2.8L331,587.5C330.4,585.9,328.9,584.9,327.3,584.9z M319.2,613.1l7.1-19.6c0.3-0.7,0.5-1.8,0.7-3.1h0.1
			c0.2,1.4,0.5,2.4,0.7,3.1l7.2,19.6H319.2z"/>
		<path class="st1" d="M389.1,588.5c-2.7-2.4-6.5-3.6-11.4-3.6H365l0,43.3c0,1.5,1.2,2.7,2.7,2.7c1.5,0,2.7-1.2,2.7-2.7l0-14.7h6.1
			c5.1,0,9.2-1.4,12.2-4.2c3-2.8,4.5-6.3,4.5-10.7C393.1,594.3,391.8,590.9,389.1,588.5z M384.5,606.1c-2,1.7-4.8,2.5-8.5,2.5h-5.6
			v-18.8h6.3c7.2,0,10.8,3,10.8,9.1C387.5,602,386.5,604.4,384.5,606.1z"/>
		<path class="st1" d="M436.4,588.5c-2.7-2.4-6.5-3.6-11.4-3.6h-12.6l0,43.3c0,1.5,1.2,2.7,2.7,2.7c1.5,0,2.7-1.2,2.7-2.7l0-14.7
			h6.1c5.1,0,9.2-1.4,12.2-4.2s4.5-6.3,4.5-10.7C440.5,594.3,439.1,590.9,436.4,588.5z M431.9,606.1c-2,1.7-4.8,2.5-8.5,2.5h-5.6
			v-18.8h6.3c7.2,0,10.8,3,10.8,9.1C434.9,602,433.9,604.4,431.9,606.1z"/>
	</g>
</g>
</svg>
