<?xml version="1.0" encoding="utf-8"?>
<!-- Generator: Adobe Illustrator 18.1.1, SVG Export Plug-In . SVG Version: 6.00 Build 0)  -->
<svg version="1.0" id="Layer_1" xmlns="http://www.w3.org/2000/svg" xmlns:xlink="http://www.w3.org/1999/xlink" x="0px" y="0px"
	 width="297px" height="54px" viewBox="0 0 297 54" enable-background="new 0 0 297 54" xml:space="preserve">
<g>
	<g>
		<g>
			<path fill="#FFFFFF" d="M70.2,13.1c-1,0-1.9,0.6-2.3,1.6L57.8,40.9h1.7c1.2,0,2.2-0.7,2.6-1.8l2.1-6H76l2.3,6
				c0.4,1.1,1.4,1.8,2.6,1.8h1.7L72.5,14.6C72.1,13.7,71.2,13.1,70.2,13.1z M65.3,30.2l4.3-11.9c0.2-0.5,0.3-1.1,0.4-1.9h0.1
				c0.1,0.9,0.3,1.5,0.4,1.9L75,30.2H65.3z"/>
			<path fill="#FFFFFF" d="M187.2,13.9l-6.1,11.7c-0.4,0.7-0.6,1.3-0.7,1.7h-0.1c-0.4-1-0.6-1.6-0.7-1.7L173.8,14
				c-0.3-0.6-0.8-0.9-1.5-0.9h-2.7l8.8,17.3c0.1,0.2,0.2,0.5,0.2,0.7v8.2c0,0.9,0.7,1.6,1.6,1.6c0.9,0,1.6-0.7,1.6-1.6V31
				c0-0.3,0.1-0.5,0.2-0.8l9-17.2h-2.5C188,13.1,187.4,13.4,187.2,13.9z"/>
			<path fill="#FFFFFF" d="M231.2,14.6l-5.3,19.9c-0.3,1.1-0.5,2-0.5,2.7h-0.1c-0.1-1-0.3-1.9-0.5-2.6l-5.5-20
				c-0.2-0.9-1.1-1.5-2-1.5c-0.9,0-1.7,0.6-2,1.5l-5.7,19.9c-0.3,1.2-0.5,2.1-0.6,2.8H209c-0.1-1-0.2-1.9-0.5-2.8L203,14.6
				c-0.2-0.9-1.1-1.5-2-1.5h-2l7.7,26.4c0.3,0.9,1.1,1.5,2,1.5h0.7c0.9,0,1.7-0.6,2-1.5l5.3-18.9c0.3-0.9,0.4-1.8,0.5-2.8h0.1
				c0.1,1,0.2,2,0.4,2.8l5.3,18.9c0.3,0.9,1.1,1.5,2,1.5h0.7c0.9,0,1.7-0.6,2-1.5l7.4-26.4h-2C232.3,13.1,231.5,13.7,231.2,14.6z"/>
			<path fill="#FFFFFF" d="M254.2,13.1c-1,0-1.9,0.6-2.3,1.6l-10.1,26.3h1.8c1.1,0,2-0.7,2.4-1.7l2.2-6.1h11.8l2.3,6.2
				c0.4,1,1.3,1.6,2.4,1.6h1.9l-10.1-26.3C256.1,13.7,255.2,13.1,254.2,13.1z M249.3,30.2l4.3-11.9c0.2-0.5,0.3-1.1,0.4-1.9h0.1
				c0.1,0.9,0.3,1.5,0.4,1.9l4.4,11.9H249.3z"/>
			<path fill="#FFFFFF" d="M290.5,13.1c-0.6,0-1.2,0.3-1.4,0.9L283,25.7c-0.4,0.7-0.6,1.3-0.7,1.7h-0.1c-0.4-1-0.6-1.6-0.7-1.7
				L275.7,14c-0.3-0.6-0.8-0.9-1.5-0.9h-2.7l8.8,17.3c0.1,0.2,0.2,0.5,0.2,0.7v8.2c0,0.9,0.7,1.6,1.6,1.6c0.9,0,1.6-0.7,1.6-1.6V31
				c0-0.3,0.1-0.5,0.2-0.8l9-17.2H290.5z"/>
			<path fill="#FFFFFF" d="M132.8,38H132v0H123V14.7c0-0.9-0.7-1.6-1.6-1.6c-0.9,0-1.6,0.7-1.6,1.6v26.2H132v0h0.8
				c0.8,0,1.5-0.7,1.5-1.5C134.2,38.7,133.6,38,132.8,38z"/>
			<path fill="#FFFFFF" d="M160.2,38.1H149V28h10c0.5,0,0.8-0.1,1.1-0.4c0.2-0.3,0.4-0.6,0.4-1c0-0.4-0.1-0.7-0.4-1
				c-0.2-0.3-0.6-0.4-1.1-0.4h-10v-9.3h10.7c0.5,0,0.8-0.1,1.1-0.4c0.2-0.3,0.4-0.6,0.4-1c0-0.4-0.1-0.7-0.4-1
				c-0.2-0.3-0.5-0.4-1-0.4l0.1,0h-0.2c0,0,0,0,0,0h-12.3c0,0,0,0,0,0h-1.6v1.7v24.5v1.7h1.7h12.8h0.3l-0.1,0c0.4,0,0.7-0.2,0.9-0.4
				c0.2-0.3,0.4-0.6,0.4-1c0-0.4-0.1-0.7-0.4-1C161,38.2,160.6,38.1,160.2,38.1z"/>
			<path fill="#FFFFFF" d="M106.9,38h-0.8v0h-8.9V14.7c0-0.9-0.7-1.6-1.6-1.6c-0.9,0-1.6,0.7-1.6,1.6v26.2h12.2v0h0.8
				c0.8,0,1.5-0.7,1.5-1.5C108.3,38.7,107.7,38,106.9,38z"/>
		</g>
	</g>
</g>
<g>
	<g>
		<g>
			<circle fill="#C7922F" cx="26.5" cy="27" r="22.5"/>
		</g>
	</g>
	<g>
		<path fill="#FFFFFF" d="M29.6,22c-0.2-0.3-0.4-0.4-0.8-0.4c-0.3,0-0.6,0.2-0.8,0.4l-5.4,10.6h-7.3l7.9-15.4c0,0,0.1-0.2,0.1-0.3
			c0.1-0.6-0.2-1.2-0.8-1.4l-0.3-0.1L13.1,33c-0.1,0.3-0.1,0.6,0,0.9c0.2,0.3,0.4,0.4,0.8,0.4h7.8L19.8,38l-0.5,1l0.3,0.1
			c0.1,0,0.5,0.2,0.7,0.2c0.5,0,1-0.3,1.2-0.7l2.2-4.3h3.2l-0.2,0.5c-0.1,0.2-0.1,0.4,0.1,0.6c0.2,0.2,0.5,0.3,0.8,0.2l3.8-1.5
			c0.3-0.1,0.5-0.4,0.5-0.7c0-0.3-0.2-0.6-0.5-0.7l-3.8-1.5c-0.3-0.1-0.6,0-0.8,0.2c-0.1,0.2-0.1,0.4-0.1,0.6l0.2,0.5h-2.3l4.2-8.2
			l7.3,14.3c0.2,0.4,0.7,0.7,1.2,0.7c0.2,0,0.6-0.2,0.7-0.2l0.2-0.1L29.6,22z"/>
		<path fill="#FFFFFF" d="M19.2,30l0.3,0.1c0.1,0,0.5,0.2,0.7,0.2c0.5,0,1-0.3,1.2-0.7L28.8,15l9,17.6c0.2,0.4,0.7,0.7,1.2,0.7
			c0.2,0,0.6-0.2,0.7-0.2L40,33L29.6,12.7c-0.2-0.3-0.4-0.4-0.8-0.4c-0.3,0-0.6,0.2-0.8,0.4L19.7,29L19.2,30z"/>
	</g>
</g>
</svg>
