<?xml version="1.0" encoding="utf-8"?>
<!-- Generator: Adobe Illustrator 19.1.0, SVG Export Plug-In . SVG Version: 6.00 Build 0)  -->
<svg version="1.1" id="Layer_1" xmlns="http://www.w3.org/2000/svg" xmlns:xlink="http://www.w3.org/1999/xlink" x="0px" y="0px"
	 viewBox="-139 262 419.4 54" style="enable-background:new -139 262 419.4 54;" xml:space="preserve">
<style type="text/css">
	.st0{fill:#C7922F;}
	.st1{fill:#FFFFFF;}
</style>
<g>
	<g>
		<g>
			<g>
				<circle class="st0" cx="-112.5" cy="289" r="22.5"/>
			</g>
		</g>
		<g>
			<path class="st1" d="M-109.5,284c-0.2-0.3-0.4-0.4-0.8-0.4c-0.3,0-0.6,0.2-0.8,0.4l-5.4,10.6h-7.3l7.9-15.4c0,0,0.1-0.2,0.1-0.3
				c0.1-0.6-0.2-1.2-0.8-1.4l-0.3-0.1l-9.1,17.8c-0.1,0.3-0.1,0.6,0,0.9c0.2,0.3,0.4,0.4,0.8,0.4h7.8l-1.9,3.7l-0.5,1l0.3,0.1
				c0.1,0,0.5,0.2,0.7,0.2c0.5,0,1-0.3,1.2-0.7l2.2-4.3h3.2l-0.2,0.5c-0.1,0.2-0.1,0.4,0.1,0.6c0.2,0.2,0.5,0.3,0.8,0.2l3.8-1.5
				c0.3-0.1,0.5-0.4,0.5-0.7c0-0.3-0.2-0.6-0.5-0.7l-3.8-1.5c-0.3-0.1-0.6,0-0.8,0.2c-0.1,0.2-0.1,0.4-0.1,0.6l0.2,0.5h-2.3l4.2-8.2
				l7.3,14.3c0.2,0.4,0.7,0.7,1.2,0.7c0.2,0,0.6-0.2,0.7-0.2l0.2-0.1L-109.5,284z"/>
			<path class="st1" d="M-119.9,292l0.3,0.1c0.1,0,0.5,0.2,0.7,0.2c0.5,0,1-0.3,1.2-0.7l7.4-14.5l9,17.6c0.2,0.4,0.7,0.7,1.2,0.7
				c0.2,0,0.6-0.2,0.7-0.2l0.2-0.1l-10.5-20.3c-0.2-0.3-0.4-0.4-0.8-0.4c-0.3,0-0.6,0.2-0.8,0.4l-8.3,16.3L-119.9,292z"/>
		</g>
	</g>
	<g>
		<g>
			<g>
				<path class="st1" d="M-68.6,275c-1,0-1.9,0.6-2.3,1.6L-81,303h1.7c1.2,0,2.2-0.7,2.6-1.8l2.1-6h11.9l2.3,6.1
					c0.4,1.1,1.4,1.8,2.6,1.8h1.7l-10.2-26.4C-66.6,275.6-67.5,275-68.6,275z M-73.5,292.2l4.4-11.9c0.2-0.5,0.3-1.1,0.4-1.9h0.1
					c0.1,0.9,0.3,1.5,0.4,1.9l4.4,11.9H-73.5z"/>
				<path class="st1" d="M48.9,275.9l-6.1,11.8c-0.4,0.7-0.6,1.3-0.7,1.7H42c-0.4-1-0.6-1.6-0.7-1.7l-5.8-11.7
					c-0.3-0.6-0.8-0.9-1.5-0.9h-2.7l8.8,17.4c0.1,0.2,0.2,0.5,0.2,0.7v8.2c0,0.9,0.7,1.6,1.6,1.6c0.9,0,1.6-0.7,1.6-1.6v-8.3
					c0-0.3,0.1-0.5,0.2-0.8l9-17.3h-2.5C49.8,275,49.2,275.3,48.9,275.9z"/>
				<path class="st1" d="M93.2,276.5l-5.3,20c-0.3,1.1-0.5,2-0.5,2.7h-0.1c-0.1-1-0.3-1.9-0.5-2.6l-5.5-20.1c-0.2-0.9-1.1-1.5-2-1.5
					c-0.9,0-1.7,0.6-2,1.5l-5.8,20c-0.3,1.2-0.5,2.1-0.6,2.8h-0.1c-0.1-1-0.2-1.9-0.5-2.8l-5.5-20c-0.2-0.9-1.1-1.5-2-1.5h-2
					l7.8,26.5c0.3,0.9,1.1,1.5,2,1.5h0.7c0.9,0,1.7-0.6,2-1.5l5.4-19c0.3-0.9,0.4-1.8,0.5-2.8h0.1c0.1,1,0.2,2,0.4,2.8l5.3,18.9
					c0.3,0.9,1.1,1.5,2,1.5h0.7c0.9,0,1.7-0.6,2-1.5l7.5-26.5h-2C94.2,275,93.4,275.6,93.2,276.5z"/>
				<path class="st1" d="M116.2,275c-1,0-1.9,0.6-2.3,1.6L103.8,303h1.8c1.1,0,2-0.7,2.4-1.7l2.2-6.1h11.9l2.3,6.2
					c0.4,1,1.3,1.7,2.4,1.7h1.9l-10.2-26.4C118.2,275.6,117.3,275,116.2,275z M111.3,292.2l4.4-11.9c0.2-0.5,0.3-1.1,0.4-1.9h0.1
					c0.1,0.9,0.3,1.5,0.4,1.9l4.4,11.9H111.3z"/>
				<path class="st1" d="M152.7,275c-0.6,0-1.2,0.3-1.5,0.9l-6.1,11.8c-0.4,0.7-0.6,1.3-0.7,1.7h-0.1c-0.4-1-0.6-1.6-0.7-1.7
					l-5.8-11.7c-0.3-0.6-0.8-0.9-1.5-0.9h-2.7l8.8,17.4c0.1,0.2,0.2,0.5,0.2,0.7v8.2c0,0.9,0.7,1.6,1.6,1.6c0.9,0,1.6-0.7,1.6-1.6
					v-8.3c0-0.3,0.1-0.5,0.2-0.8l9-17.3H152.7z"/>
				<path class="st1" d="M-5.7,300.1h-0.8v0h-9v-23.4c0-0.9-0.7-1.6-1.6-1.6c-0.9,0-1.6,0.7-1.6,1.6V303h12.2v0h0.8
					c0.8,0,1.5-0.7,1.5-1.5C-4.2,300.7-4.9,300.1-5.7,300.1z"/>
				<path class="st1" d="M21.8,300.1H10.5V290h10.1c0.5,0,0.8-0.1,1.1-0.4c0.2-0.3,0.4-0.6,0.4-1c0-0.4-0.1-0.7-0.4-1
					c-0.2-0.3-0.6-0.4-1.1-0.4H10.5v-9.3h10.7c0.5,0,0.8-0.1,1.1-0.4c0.2-0.3,0.4-0.6,0.4-1c0-0.4-0.1-0.7-0.4-1
					c-0.2-0.3-0.5-0.4-1-0.4l0.1,0h-0.2l0,0H8.9l0,0H7.2v1.7v24.6v1.7H9h12.8h0.3l-0.1,0c0.4,0,0.7-0.2,0.9-0.4
					c0.2-0.3,0.4-0.6,0.4-1c0-0.4-0.1-0.7-0.4-1C22.6,300.3,22.3,300.1,21.8,300.1z"/>
				<path class="st1" d="M-31.7,300.1h-0.8v0h-9v-23.4c0-0.9-0.7-1.6-1.6-1.6c-0.9,0-1.6,0.7-1.6,1.6V303h12.2v0h0.8
					c0.8,0,1.5-0.7,1.5-1.5C-30.3,300.7-30.9,300.1-31.7,300.1z"/>
			</g>
		</g>
		<g>
			<path class="st1" d="M259,301.5v-3.7c0.4,0.4,0.9,0.7,1.5,1c0.6,0.3,1.2,0.6,1.9,0.8c0.7,0.2,1.3,0.4,2,0.5
				c0.7,0.1,1.3,0.2,1.9,0.2c2,0,3.4-0.4,4.4-1.1c1-0.7,1.4-1.8,1.4-3.1c0-0.7-0.2-1.4-0.5-1.9c-0.3-0.5-0.8-1-1.3-1.5
				c-0.6-0.4-1.2-0.9-2-1.3c-0.8-0.4-1.6-0.8-2.5-1.3c-0.9-0.5-1.8-1-2.6-1.5c-0.8-0.5-1.5-1-2.1-1.6s-1.1-1.3-1.4-2
				c-0.3-0.7-0.5-1.6-0.5-2.6c0-1.2,0.3-2.3,0.8-3.2s1.3-1.7,2.1-2.3s1.9-1,3-1.3c1.1-0.3,2.3-0.4,3.4-0.4c2.7,0,4.6,0.3,5.8,1v3.6
				c-1.6-1.1-3.7-1.7-6.2-1.7c-0.7,0-1.4,0.1-2.1,0.2c-0.7,0.1-1.3,0.4-1.9,0.7s-1,0.7-1.3,1.3c-0.3,0.5-0.5,1.1-0.5,1.9
				c0,0.7,0.1,1.3,0.4,1.8c0.3,0.5,0.6,1,1.1,1.4s1.1,0.8,1.8,1.2c0.7,0.4,1.6,0.8,2.5,1.3c1,0.5,1.9,1,2.8,1.5
				c0.9,0.5,1.6,1.1,2.3,1.8c0.7,0.6,1.2,1.4,1.6,2.1c0.4,0.8,0.6,1.7,0.6,2.7c0,1.3-0.3,2.5-0.8,3.4c-0.5,0.9-1.2,1.7-2.1,2.3
				c-0.9,0.6-1.9,1-3.1,1.3c-1.2,0.3-2.4,0.4-3.7,0.4c-0.4,0-1,0-1.6-0.1c-0.6-0.1-1.3-0.2-1.9-0.3s-1.3-0.3-1.9-0.5
				C259.8,301.9,259.3,301.7,259,301.5z"/>
			<path class="st1" d="M187.3,275c-1,0-1.9,0.6-2.3,1.6L174.9,303h1.7c1.2,0,2.2-0.7,2.6-1.8l2.1-6h11.9l2.3,6.1
				c0.4,1.1,1.4,1.8,2.6,1.8h1.7l-10.2-26.4C189.2,275.6,188.3,275,187.3,275z M182.4,292.2l4.4-11.9c0.2-0.5,0.3-1.1,0.4-1.9h0.1
				c0.1,0.9,0.3,1.5,0.4,1.9l4.4,11.9H182.4z"/>
			<path class="st1" d="M223.2,277.2c-1.6-1.5-4-2.2-7-2.2h-7.7l0,26.4c0,0.9,0.7,1.6,1.6,1.6c0.9,0,1.6-0.7,1.6-1.6l0-8.9h3.7
				c3.1,0,5.6-0.8,7.4-2.5s2.7-3.9,2.7-6.5S224.8,278.6,223.2,277.2z M220.4,287.9c-1.2,1-2.9,1.6-5.2,1.6h-3.4V278h3.8
				c4.4,0,6.6,1.8,6.6,5.5C222.2,285.4,221.6,286.9,220.4,287.9z"/>
			<path class="st1" d="M249.6,277.2c-1.6-1.5-4-2.2-7-2.2h-7.7l0,26.4c0,0.9,0.7,1.6,1.6,1.6c0.9,0,1.6-0.7,1.6-1.6l0-8.9h3.7
				c3.1,0,5.6-0.8,7.4-2.5s2.7-3.9,2.7-6.5S251.2,278.6,249.6,277.2z M246.8,287.9c-1.2,1-2.9,1.6-5.2,1.6h-3.4V278h3.8
				c4.4,0,6.6,1.8,6.6,5.5C248.6,285.4,248,286.9,246.8,287.9z"/>
		</g>
	</g>
</g>
</svg>
