<?xml version="1.0" encoding="utf-8"?>
<!-- Generator: Adobe Illustrator 18.1.1, SVG Export Plug-In . SVG Version: 6.00 Build 0)  -->
<svg version="1.1" id="Layer_1" xmlns="http://www.w3.org/2000/svg" xmlns:xlink="http://www.w3.org/1999/xlink" x="0px" y="0px"
	 width="522px" height="720px" viewBox="0 0 522 720" enable-background="new 0 0 522 720" xml:space="preserve">
<g>
	<g>
		<path fill="#FFFFFF" d="M29.7,573.7c-2.2,0-4.3,1.4-5.1,3.5L2.5,635h3.7c2.6,0,4.8-1.6,5.7-4l4.7-13.2h26l5,13.3
			c0.9,2.3,3.1,3.9,5.6,3.9H57l-22.3-57.8C33.9,575.1,31.9,573.7,29.7,573.7z M19,611.4l9.5-26.1c0.4-1,0.7-2.4,1-4.1h0.2
			c0.3,1.9,0.6,3.2,0.9,4.1l9.6,26.1H19z"/>
		<path fill="#FFFFFF" d="M286.9,575.7l-13.4,25.8c-0.8,1.5-1.3,2.8-1.6,3.8h-0.1c-0.8-2.2-1.3-3.4-1.5-3.8l-12.7-25.7
			c-0.6-1.2-1.9-2-3.2-2h-5.9l19.3,38c0.3,0.5,0.4,1.1,0.4,1.6v18c0,2,1.6,3.6,3.6,3.6c2,0,3.6-1.6,3.6-3.6v-18.2
			c0-0.6,0.1-1.2,0.4-1.7l19.8-37.8h-5.4C288.8,573.7,287.5,574.5,286.9,575.7z"/>
		<path fill="#FFFFFF" d="M383.8,577.1l-11.6,43.8c-0.7,2.4-1,4.4-1.2,5.9h-0.2c-0.2-2.2-0.6-4.1-1-5.7l-12.1-44
			c-0.5-2-2.3-3.3-4.4-3.3c-2,0-3.8,1.3-4.4,3.3l-12.6,43.7c-0.7,2.6-1.2,4.6-1.3,6.2h-0.2c-0.1-2.1-0.5-4.2-1-6.2l-12.1-43.7
			c-0.5-2-2.3-3.3-4.4-3.3h-4.5l17,58c0.6,1.9,2.3,3.3,4.4,3.3h1.5c2,0,3.8-1.3,4.4-3.3l11.8-41.6c0.6-2,0.9-4,1.1-6.2h0.2
			c0.1,2.3,0.4,4.3,1,6.2l11.7,41.5c0.6,2,2.3,3.3,4.4,3.3h1.5c2,0,3.8-1.4,4.4-3.3l16.4-58h-4.3
			C386.1,573.7,384.3,575.1,383.8,577.1z"/>
		<path fill="#FFFFFF" d="M434.3,573.7c-2.2,0-4.3,1.4-5.1,3.5L407.1,635h4c2.4,0,4.5-1.5,5.3-3.7l4.8-13.5h26l5.1,13.6
			c0.8,2.2,2.9,3.6,5.2,3.6h4.1l-22.3-57.8C438.5,575.1,436.5,573.7,434.3,573.7z M423.6,611.4l9.5-26.1c0.4-1,0.7-2.4,1-4.1h0.2
			c0.3,1.9,0.6,3.2,0.9,4.1l9.6,26.1H423.6z"/>
		<path fill="#FFFFFF" d="M514.1,573.7c-1.3,0-2.6,0.7-3.2,1.9l-13.4,25.8c-0.8,1.5-1.3,2.8-1.6,3.8h-0.1c-0.8-2.2-1.3-3.4-1.5-3.8
			l-12.7-25.7c-0.6-1.2-1.9-2-3.2-2h-5.9l19.3,38c0.3,0.5,0.4,1.1,0.4,1.6v18c0,2,1.6,3.6,3.6,3.6c2,0,3.6-1.6,3.6-3.6v-18.2
			c0-0.6,0.1-1.2,0.4-1.7l19.8-37.8H514.1z"/>
		<path fill="#FFFFFF" d="M167.3,628.6h-1.8v-0.1h-19.6v-51.2c0-2-1.6-3.6-3.6-3.6c-2,0-3.6,1.6-3.6,3.6V635h26.8v0h1.8
			c1.8,0,3.2-1.4,3.2-3.2C170.5,630,169.1,628.6,167.3,628.6z"/>
		<path fill="#FFFFFF" d="M227.5,628.8h-24.6v-22.2h22.1c1.1,0,1.9-0.3,2.4-1c0.5-0.6,0.8-1.4,0.8-2.1c0-0.8-0.3-1.5-0.8-2.1
			c-0.5-0.6-1.3-1-2.4-1h-22.1V580h23.4c1.1,0,1.8-0.3,2.4-1c0.5-0.6,0.8-1.4,0.8-2.2c0-0.8-0.3-1.5-0.8-2.1
			c-0.5-0.6-1.2-0.9-2.1-0.9l0.2,0h-0.4c0,0,0,0,0,0h-27.1c0,0,0,0,0,0h-3.5v3.7v53.9v3.7h3.8h28.1h0.6l-0.3-0.1
			c0.9-0.1,1.6-0.3,2-0.9c0.5-0.6,0.8-1.4,0.8-2.2c0-0.8-0.3-1.5-0.8-2.1C229.4,629.1,228.6,628.8,227.5,628.8z"/>
		<path fill="#FFFFFF" d="M110.4,628.6h-1.8v-0.1H89v-51.2c0-2-1.6-3.6-3.6-3.6c-2,0-3.6,1.6-3.6,3.6V635h26.8v0h1.8
			c1.8,0,3.2-1.4,3.2-3.2C113.6,630,112.1,628.6,110.4,628.6z"/>
	</g>
	<g>
		<path fill="#FFFFFF" d="M28.4,658c-5.6,0-10.3,1.9-14,5.8C10.8,667.6,9,672.7,9,679c0,5.7,1.7,10.4,5.1,14
			c3.4,3.6,7.8,5.4,13.2,5.4c3.4,0,6.7-0.7,9.8-1.9l0.7-0.3V691l-1.7,0.8c-2.5,1.2-5.4,1.9-8.6,1.9c-3.9,0-7.1-1.3-9.6-4
			c-2.5-2.7-3.8-6.4-3.8-11c0-4.9,1.4-8.8,4-11.7c2.7-2.9,6.1-4.3,10.4-4.3c2.7,0,5.2,0.6,7.7,1.6l1.7,0.8v-5.4l-0.8-0.3
			C34.2,658.5,31.3,658,28.4,658z"/>
		<path fill="#FFFFFF" d="M66,658c-5.8,0-10.5,1.9-13.9,5.7c-3.4,3.7-5.1,8.7-5.1,14.9c0,5.8,1.7,10.6,4.9,14.3
			c3.3,3.7,7.8,5.6,13.3,5.6c5.6,0,10.1-1.9,13.5-5.6c3.3-3.7,5-8.8,5-15.2c0-5.8-1.7-10.5-4.9-14.1C75.7,659.9,71.3,658,66,658z
			 M55.7,689.6c-2.4-2.8-3.6-6.6-3.6-11.3c0-4.7,1.3-8.5,3.8-11.4c2.5-2.9,5.7-4.2,9.7-4.2c4.1,0,7.3,1.3,9.7,4
			c2.4,2.7,3.6,6.5,3.6,11.4c0,5-1.2,8.9-3.7,11.6c-2.4,2.7-5.7,4-9.9,4C61.2,693.7,58.1,692.4,55.7,689.6z"/>
		<polygon fill="#FFFFFF" points="120.8,687.8 99.3,658.7 95.5,658.7 95.5,697.8 100.5,697.8 100.5,668.4 122.1,697.8 125.7,697.8 
			125.7,658.7 120.8,658.7 		"/>
		<path fill="#FFFFFF" d="M150.8,676.3c-3.2-1.8-5.3-3.3-6.2-4.3c-0.8-0.9-1.2-2.1-1.2-3.7c0-1.6,0.6-2.9,1.8-3.9
			c1.2-1.1,3-1.6,5.2-1.6c2.3,0,4.4,0.5,6.4,1.4l1.7,0.8v-5.4l-0.8-0.3c-2.3-0.8-4.6-1.2-6.9-1.2c-3.7,0-6.6,1-8.9,3
			c-2.3,2-3.4,4.6-3.4,7.5c0,2.1,0.6,4.1,1.7,5.7c1.1,1.6,3.5,3.5,7.5,5.8c4,2.3,5.6,3.6,6.2,4.3c0.8,0.9,1.2,2.1,1.2,3.7
			c0,1.8-0.6,3.1-1.8,4.1c-1.3,1-3.2,1.5-5.8,1.5c-2.5,0-4.9-0.8-7.4-2.3l-1.8-1.2v5.8l0.6,0.3c1,0.6,2.3,1.1,4.1,1.5
			c1.7,0.4,3.3,0.6,4.6,0.6c3.9,0,6.9-1,9.1-3c2.2-2,3.3-4.6,3.3-7.8c0-2.2-0.7-4.2-1.9-5.9C156.8,680.1,154.4,678.3,150.8,676.3z"
			/>
		<path fill="#FFFFFF" d="M194.5,682.5c0,7.7-2.8,11.2-8.9,11.2c-6.3,0-9.2-3.7-9.2-11.6v-23.5h-4.9v23.8c0,13.2,7.4,16,13.6,16
			c11.8,0,14.3-9,14.3-16.5v-23.3h-4.9V682.5z"/>
		<polygon fill="#FFFFFF" points="217.5,658.7 212.6,658.7 212.6,697.8 232.3,697.8 232.3,693.1 217.5,693.1 		"/>
		<polygon fill="#FFFFFF" points="235.6,663.4 246.3,663.4 246.3,697.8 251.2,697.8 251.2,663.4 261.8,663.4 261.8,658.7 
			235.6,658.7 		"/>
		<rect x="272.2" y="658.7" fill="#FFFFFF" width="4.9" height="39.2"/>
		<polygon fill="#FFFFFF" points="316,687.8 294.5,658.7 290.7,658.7 290.7,697.8 295.7,697.8 295.7,668.4 317.3,697.8 320.9,697.8 
			320.9,658.7 316,658.7 		"/>
		<path fill="#FFFFFF" d="M349.9,681.9h8.7v10.2c-2.2,1.1-4.7,1.7-7.5,1.7c-4.2,0-7.4-1.3-9.8-4c-2.4-2.7-3.7-6.5-3.7-11.3
			c0-4.6,1.3-8.4,3.9-11.3c2.6-2.9,6-4.3,10.3-4.3c3,0,6.1,0.8,9.3,2.3l1.7,0.8v-5.5l-0.7-0.3c-3.2-1.4-6.5-2-9.9-2
			c-5.9,0-10.7,2-14.2,6c-3.5,3.9-5.3,8.9-5.3,14.7c0,5.8,1.7,10.6,5,14.2c3.3,3.6,7.7,5.5,13,5.5c4.2,0,8.3-1.1,12.3-3.4l0.6-0.3
			v-17.6h-13.6V681.9z"/>
		<polygon fill="#FFFFFF" points="372.2,704.2 376.7,704.2 382,689.6 376.8,689.6 		"/>
		<polygon fill="#FFFFFF" points="420.3,658.7 415.4,658.7 415.4,697.8 435,697.8 435,693.1 420.3,693.1 		"/>
		<polygon fill="#FFFFFF" points="450.9,658.7 446,658.7 446,697.8 465.6,697.8 465.6,693.1 450.9,693.1 		"/>
		<path fill="#FFFFFF" d="M491.5,662.7c2.7,0,5.2,0.6,7.7,1.6l1.7,0.8v-5.4l-0.8-0.3c-2.7-0.9-5.6-1.4-8.5-1.4
			c-5.6,0-10.3,1.9-14,5.8c-3.6,3.8-5.5,8.9-5.5,15.2c0,5.7,1.7,10.4,5.1,14c3.4,3.6,7.8,5.4,13.2,5.4c3.4,0,6.7-0.7,9.8-1.9
			l0.7-0.3V691l-1.7,0.8c-2.5,1.2-5.4,1.9-8.6,1.9c-3.9,0-7.1-1.3-9.6-4c-2.5-2.7-3.8-6.4-3.8-11c0-4.9,1.4-8.8,4-11.7
			C483.8,664.2,487.2,662.7,491.5,662.7z"/>
	</g>
</g>
<g>
	<g>
		<g>
			<circle fill="#C7922F" cx="261" cy="265.9" r="258.3"/>
		</g>
	</g>
	<g>
		<path fill="#FFFFFF" d="M295.9,208c-1.8-3.1-5.1-5-8.9-5c-3.6,0-7,1.9-8.9,5.2l-62.1,121.3h-83.3l91.2-176.9
			c0.1-0.2,1-2.6,0.9-3.6c1.3-6.9-2.4-13.7-8.8-16.5l-3.8-1.6l-105,203.8c-1.7,3.1-1.6,6.9,0.2,9.8c1.8,2.9,5.1,4.7,8.6,4.7H206
			l-22,43l-5.9,11.3l2.9,1.1c1.4,0.5,6,2.3,8.3,2.3c5.9,0,11.2-3.2,13.9-8.3l25.4-49.4h36.9l-2.6,5.8c-1,2.3-0.8,4.9,0.7,7
			c1.9,2.8,5.9,4,9,2.7l43.1-17.5c3.3-1.3,5.3-4.3,5.3-7.8c0-3.4-2.1-6.5-5.3-7.8L272.6,314c-3.2-1.3-7.1-0.1-9,2.7
			c-1.4,2.1-1.7,4.7-0.7,7.1l2.5,5.7h-26.8l48.5-94.6l84,163.6c2.7,5.1,8,8.2,13.9,8.2c2.4,0,7-1.7,8.3-2.3l2.9-1.1L295.9,208z"/>
		<path fill="#FFFFFF" d="M176.6,300l2.9,1.1c1.4,0.5,6,2.3,8.3,2.3c5.9,0,11.2-3.2,13.9-8.3l85.4-166.5l103.8,201.9
			c2.7,5.1,8,8.3,13.9,8.3c2.4,0,7-1.7,8.3-2.3l2.9-1.1L295.9,101.8c-1.8-3.1-5.1-5-8.9-5c-3.6,0-7,1.9-8.9,5.2l-95.7,186.8
			L176.6,300z"/>
	</g>
</g>
</svg>
